<?xml version="1.0" standalone="no"?>
<!DOCTYPE svg PUBLIC "-//W3C//DTD SVG 20010904//EN"
 "http://www.w3.org/TR/2001/REC-SVG-20010904/DTD/svg10.dtd">
<svg version="1.0" xmlns="http://www.w3.org/2000/svg"
 width="655.000000pt" height="567.000000pt" viewBox="0 0 655.000000 567.000000"
 preserveAspectRatio="xMidYMid meet">

<g transform="translate(0.000000,567.000000) scale(0.100000,-0.100000)"
fill="#4361EE" stroke="none">
<path d="M6450 5653 c0 -10 54 -23 62 -15 6 6 -4 11 -26 14 -20 2 -36 3 -36 1z"/>
<path d="M45 5640 c3 -5 12 -10 20 -10 8 0 17 5 20 10 4 6 -5 10 -20 10 -15 0
-24 -4 -20 -10z"/>
<path d="M1575 5640 c3 -5 12 -10 20 -10 8 0 17 5 20 10 4 6 -5 10 -20 10 -15
0 -24 -4 -20 -10z"/>
<path d="M4938 5638 c8 -8 17 -8 34 0 22 10 21 11 -11 11 -27 1 -32 -2 -23
-11z"/>
<path d="M344 5554 c-23 -8 -60 -31 -83 -50 -95 -82 -111 -184 -48 -314 52
-107 134 -260 198 -370 31 -52 90 -153 131 -225 41 -71 112 -193 157 -270 46
-77 122 -207 169 -290 47 -82 109 -190 138 -240 60 -104 82 -141 144 -249 25
-42 69 -119 99 -169 29 -51 75 -130 101 -177 56 -101 61 -109 180 -315 51 -88
110 -189 131 -224 22 -34 39 -64 39 -66 0 -4 106 -189 220 -385 40 -69 123
-213 185 -320 61 -107 150 -260 197 -340 46 -80 113 -196 149 -259 35 -62 81
-143 102 -180 21 -36 41 -74 44 -83 3 -10 9 -18 14 -18 5 0 9 -4 9 -10 0 -5
19 -42 43 -82 41 -69 223 -390 250 -440 103 -194 199 -304 290 -332 93 -29
190 3 259 86 31 38 201 324 345 581 24 43 55 96 68 117 14 22 25 41 25 43 0 2
23 44 52 93 28 49 68 118 88 154 20 36 52 90 70 120 18 30 47 80 63 110 17 30
52 90 79 133 26 43 48 80 48 83 0 2 22 41 49 86 27 46 93 162 146 258 54 96
118 208 142 247 24 40 43 75 43 78 0 4 117 206 160 275 5 8 19 33 30 55 12 22
39 67 59 100 21 33 68 112 104 175 99 173 204 355 260 450 27 47 61 105 75
130 36 64 269 470 402 700 62 107 190 330 285 495 94 165 183 318 197 340 72
115 107 233 94 317 -10 64 -60 136 -116 168 l-45 25 -2900 2 c-2523 1 -2905 0
-2941 -13z m5839 -28 c37 -7 90 -53 114 -100 11 -22 14 -51 11 -115 -5 -92
-21 -133 -107 -274 -20 -34 -54 -91 -73 -127 -20 -36 -75 -132 -123 -215 -48
-82 -99 -170 -113 -195 -13 -25 -39 -70 -57 -100 -29 -48 -269 -465 -315 -545
-9 -16 -59 -102 -110 -190 -51 -88 -104 -180 -118 -205 -23 -41 -116 -203
-344 -598 -48 -84 -99 -169 -111 -190 -34 -53 -376 -651 -459 -802 -17 -30
-45 -80 -63 -110 -51 -87 -168 -288 -215 -370 -24 -41 -73 -127 -110 -190 -37
-63 -78 -135 -92 -160 -14 -25 -42 -74 -63 -110 -20 -36 -46 -81 -57 -100
-319 -563 -345 -602 -421 -639 -141 -68 -274 28 -415 304 -45 86 -99 184 -112
200 -4 6 -28 46 -52 90 -24 44 -89 157 -143 250 -54 94 -109 190 -123 215 -54
97 -257 448 -292 505 -32 52 -77 130 -158 275 -10 19 -33 58 -49 86 -17 27
-41 70 -55 95 -14 24 -69 121 -123 214 -100 173 -194 337 -236 411 -50 87
-127 220 -195 337 -39 67 -126 219 -194 337 -68 118 -149 258 -180 310 -31 52
-77 131 -101 175 -24 44 -51 92 -59 106 -8 14 -34 59 -58 100 -24 41 -58 99
-76 129 -144 243 -203 345 -331 575 -174 314 -195 360 -195 427 0 95 77 180
179 197 47 8 5751 5 5794 -3z"/>
<path d="M396 5469 c-57 -13 -103 -53 -117 -98 -19 -64 25 -183 125 -339 23
-37 100 -168 171 -292 71 -124 146 -253 167 -288 21 -34 38 -64 38 -67 0 -3
18 -34 40 -70 22 -36 40 -68 40 -70 0 -3 11 -22 23 -43 30 -46 160 -273 432
-747 116 -203 224 -389 238 -412 15 -24 27 -45 27 -48 0 -3 11 -22 23 -43 28
-44 518 -895 595 -1032 14 -25 33 -56 42 -70 9 -14 32 -52 49 -85 47 -86 81
-145 106 -185 12 -19 50 -84 85 -145 484 -848 622 -1085 664 -1139 51 -65 123
-83 185 -45 63 38 94 81 238 334 66 116 144 251 174 300 29 50 66 115 83 145
16 30 33 57 38 58 4 2 8 7 8 12 0 4 32 64 71 132 75 130 197 346 332 588 44
80 84 147 89 148 4 2 8 8 8 14 0 6 20 44 45 85 25 40 45 76 45 78 0 2 33 59
73 127 85 143 188 318 275 471 134 232 188 326 247 427 34 58 106 183 161 279
54 96 110 193 123 215 13 23 60 106 106 186 46 80 113 196 149 259 36 62 66
115 66 117 0 3 20 37 44 77 40 67 156 267 221 382 45 80 85 149 95 165 154
250 224 386 236 457 9 58 -23 122 -73 149 -37 19 -91 19 -2893 21 -1724 0
-2871 -3 -2894 -8z m525 -219 c16 -9 19 -22 19 -85 l0 -75 -35 0 -35 0 0 55 0
56 -57 -3 -58 -3 -3 -207 -2 -208 60 0 60 0 0 55 0 55 35 0 35 0 0 -79 c0 -63
-3 -80 -16 -85 -30 -11 -219 -7 -232 6 -16 16 -17 480 -2 509 10 17 22 19 111
19 55 0 109 -5 120 -10z m347 -2 c17 -17 17 -499 0 -516 -8 -8 -51 -12 -129
-12 l-116 0 -7 38 c-7 47 -8 440 0 469 8 28 18 30 139 32 67 1 105 -3 113 -11z
m160 -230 l2 -238 71 0 70 0 -4 -27 -4 -28 -101 -3 -102 -3 0 264 c0 145 3
267 7 271 4 4 19 6 33 4 l25 -3 3 -237z m410 210 c3 -27 3 -27 -65 -30 l-68
-3 -3 -88 c-2 -67 0 -88 10 -86 7 1 34 1 61 0 45 -1 47 -2 47 -31 l0 -30 -60
0 -60 0 0 -90 0 -90 70 0 70 0 0 -30 0 -30 -105 0 -105 0 0 270 0 271 103 -3
102 -3 3 -27z m310 26 c20 -6 22 -12 22 -81 l0 -74 -32 3 c-32 3 -33 5 -36 51
l-3 47 -60 0 -59 0 0 -210 0 -210 60 0 60 0 0 80 0 80 -30 0 c-27 0 -30 3 -30
30 l0 31 67 -3 67 -3 -3 -130 c-1 -71 -5 -133 -7 -137 -3 -4 -57 -8 -119 -8
-103 0 -115 2 -125 19 -6 12 -10 112 -10 255 0 200 2 237 16 250 12 12 37 16
107 16 51 0 102 -3 115 -6z m178 -20 c4 -14 4 -63 0 -107 -3 -45 -6 -155 -6
-244 l0 -163 -29 0 c-21 0 -30 6 -35 23 -8 30 -8 502 1 510 3 4 19 7 34 7 22
0 30 -6 35 -26z m322 20 l22 -6 0 -253 c0 -204 -3 -255 -14 -264 -9 -8 -52
-11 -127 -9 -111 3 -113 3 -120 28 -9 31 -11 447 -3 477 3 12 13 24 23 26 25
7 193 7 219 1z m309 -2 c6 -4 37 -77 69 -162 32 -85 61 -159 66 -164 4 -6 8
68 8 163 l0 172 33 -3 32 -3 3 -267 2 -268 -34 0 c-32 0 -34 3 -56 63 -54 149
-102 267 -108 267 -4 0 -7 -73 -7 -162 l0 -163 -32 -3 -33 -3 0 264 c0 145 3
267 7 270 8 9 35 9 50 -1z m457 -4 c6 -19 85 -437 92 -486 l7 -43 -34 3 c-32
3 -34 6 -43 51 l-8 48 -57 -3 -56 -3 -9 -47 c-7 -44 -11 -48 -36 -48 -16 0
-31 3 -33 8 -2 4 11 84 29 177 18 94 40 208 49 254 9 47 18 88 21 93 8 13 74
9 78 -4z m400 6 c13 -5 16 -22 16 -85 l0 -79 -35 0 -35 0 0 55 0 55 -55 0 -55
0 0 -210 0 -210 54 0 c49 0 54 2 60 24 3 13 3 38 0 56 -7 31 -7 31 31 28 l38
-3 -1 -62 c-1 -108 4 -104 -130 -101 -114 3 -116 3 -123 28 -9 31 -11 447 -3
477 3 12 13 24 23 26 25 7 198 8 215 1z m586 -24 c0 -29 0 -29 -67 -32 l-68
-3 0 -85 c0 -61 4 -85 13 -86 6 -1 32 -2 57 -3 43 -1 45 -2 45 -31 l0 -30 -60
0 -60 0 0 -90 0 -89 73 -3 c69 -3 72 -4 72 -28 0 -25 0 -25 -107 -28 l-108 -3
0 264 c0 145 3 267 7 270 3 4 51 7 105 7 l98 0 0 -30z m435 -10 c7 -19 28 -90
46 -157 29 -110 49 -153 49 -106 0 21 69 262 82 286 6 12 18 17 36 15 l27 -3
3 -267 2 -268 -35 0 -35 0 -2 163 -3 162 -35 -137 c-27 -109 -38 -138 -51
-138 -17 0 -42 77 -69 213 -6 31 -16 57 -21 57 -5 0 -9 -68 -9 -160 l0 -160
-30 0 -30 0 0 263 c0 145 3 267 7 271 4 4 18 6 31 4 17 -2 28 -13 37 -38z
m841 5 c23 -29 24 -34 24 -241 l0 -211 -26 -24 c-23 -22 -36 -24 -130 -27
l-104 -4 0 272 0 272 106 -4 c104 -4 107 -4 130 -33z m-1706 -470 c0 -33 -2
-35 -35 -35 -33 0 -35 2 -35 35 0 33 2 35 35 35 33 0 35 -2 35 -35z m570 0 c0
-33 -2 -35 -35 -35 -33 0 -35 2 -35 35 0 33 2 35 35 35 33 0 35 -2 35 -35z
m678 3 c-3 -29 -7 -33 -35 -36 -32 -3 -33 -2 -33 32 0 35 1 36 36 36 34 0 35
-1 32 -32z m617 -3 c0 -27 -4 -30 -32 -33 -32 -3 -33 -2 -33 33 0 35 1 36 32
33 28 -3 32 -7 33 -33z m-2535 -335 c0 -16 -7 -20 -32 -20 l-31 0 6 -185 6
-185 -24 0 c-12 0 -26 7 -29 16 -3 9 -6 75 -6 149 0 175 -4 195 -41 195 -31 0
-44 13 -35 35 4 12 26 15 96 15 83 0 90 -1 90 -20z m117 -117 c-4 -75 -7 -167
-7 -205 0 -66 -1 -68 -25 -68 -25 0 -25 1 -25 83 0 46 3 139 7 205 6 122 6
122 31 122 l25 0 -6 -137z m-388 118 c8 -5 17 -30 21 -55 6 -40 4 -48 -12 -57
-25 -14 -38 -3 -38 31 0 36 -12 44 -56 36 -31 -6 -34 -10 -34 -44 0 -41 3 -45
97 -111 34 -23 64 -49 67 -56 3 -8 8 -41 12 -73 6 -52 4 -61 -12 -70 -30 -16
-161 -26 -169 -13 -3 6 -9 36 -12 66 -6 54 -5 55 21 55 21 0 26 -5 26 -24 0
-45 10 -56 51 -56 l39 0 0 43 c0 23 -4 47 -8 52 -4 6 -37 32 -74 58 -78 55
-86 66 -88 127 -3 84 -14 77 145 98 6 1 16 -2 24 -7z m660 -5 c6 -4 11 -32 11
-62 0 -51 -1 -54 -25 -54 -22 0 -25 4 -25 39 0 38 -1 39 -42 43 -24 3 -45 3
-47 1 -7 -5 -19 -109 -27 -219 l-7 -102 42 -4 c24 -2 44 -1 46 2 2 3 6 30 10
62 6 51 5 57 -14 63 -23 7 -29 45 -7 45 7 0 28 -3 46 -7 l33 -6 -6 -87 c-10
-129 -5 -124 -101 -117 -48 4 -86 12 -94 21 -12 12 -12 36 2 172 9 88 19 174
22 193 l5 34 84 -5 c46 -3 88 -9 94 -12z m-921 -53 c3 -17 -4 -22 -43 -27 -25
-4 -48 -13 -50 -19 -3 -7 1 -37 8 -67 14 -59 15 -60 85 -44 20 4 23 1 20 -18
-2 -17 -13 -25 -40 -31 -42 -10 -43 -11 -26 -91 l11 -58 46 7 c25 4 51 8 56 8
6 1 10 -7 10 -17 0 -16 -13 -23 -70 -37 -38 -9 -73 -14 -76 -11 -7 8 -74 292
-85 358 l-6 41 68 15 c82 18 88 18 92 -9z m1151 -152 c-2 -221 -6 -251 -30
-251 -16 0 -19 7 -19 45 0 32 -4 45 -14 45 -7 0 -28 3 -45 6 -28 6 -32 4 -46
-30 -16 -38 -21 -41 -44 -27 -16 10 -19 1 76 231 31 74 60 140 64 146 5 6 21
9 34 6 l26 -4 -2 -167z m251 101 c57 -20 76 -32 78 -47 1 -11 -10 -56 -25
-100 -25 -73 -31 -80 -58 -85 l-29 -5 3 -93 c3 -93 -2 -106 -35 -84 -11 7 -19
106 -15 196 1 37 2 38 31 33 27 -6 31 -3 46 31 8 20 18 51 21 68 5 29 2 33
-32 44 -20 7 -40 8 -45 4 -4 -5 -31 -82 -60 -171 -42 -133 -55 -163 -70 -163
-10 0 -21 4 -24 8 -5 8 102 357 117 380 10 15 8 16 97 -16z m270 -104 c70 -31
72 -33 67 -63 -3 -17 -19 -62 -36 -99 -29 -65 -32 -68 -60 -64 l-30 4 -7 -98
c-3 -54 -9 -98 -11 -98 -2 0 -13 5 -24 11 -18 9 -19 17 -13 112 8 116 14 131
50 115 13 -6 26 -9 28 -7 7 7 56 119 56 127 0 8 -58 32 -77 32 -6 0 -16 -12
-21 -27 -6 -16 -32 -75 -57 -133 -26 -58 -53 -119 -61 -137 -10 -24 -18 -30
-34 -26 -11 3 -20 11 -20 19 0 7 27 75 60 151 89 202 94 213 106 213 6 0 44
-14 84 -32z m-2213 -45 c11 -27 42 -97 68 -158 27 -60 52 -114 56 -119 4 -5
25 0 48 11 40 20 61 15 61 -12 0 -15 -131 -69 -141 -58 -4 4 -27 58 -52 118
-25 61 -59 139 -75 175 -30 69 -31 90 -3 90 11 0 25 -17 38 -47z m-144 -120
c36 -43 95 -113 131 -157 53 -62 64 -81 55 -92 -16 -20 -25 -18 -53 12 -18 20
-30 25 -48 20 -48 -12 -53 -21 -42 -66 10 -36 9 -42 -8 -51 -11 -6 -21 -9 -23
-7 -4 4 -113 337 -120 370 -6 24 11 47 37 48 3 0 35 -35 71 -77z m2545 68 c14
-9 -17 -77 -113 -246 -25 -44 -48 -88 -52 -97 -6 -21 -41 -24 -49 -4 -5 13 42
110 100 206 12 19 35 61 51 92 30 58 39 65 63 49z m175 -103 c59 -40 77 -56
77 -69 0 -3 -19 -34 -41 -67 -35 -52 -46 -62 -70 -62 -27 0 -28 -2 -18 -26 8
-23 5 -35 -23 -81 -18 -30 -42 -63 -54 -73 -20 -20 -21 -20 -98 31 -42 28 -76
54 -74 59 8 20 224 329 231 330 4 0 35 -19 70 -42z m-2943 -48 c18 -23 29 -47
26 -55 -9 -23 -41 -18 -56 10 -7 14 -16 25 -19 25 -15 0 -71 -41 -71 -52 0 -7
25 -45 55 -83 30 -39 70 -94 90 -122 20 -29 39 -53 43 -53 4 0 21 11 37 24
l30 25 -17 31 c-17 29 -24 60 -14 60 2 0 11 2 18 5 14 6 78 -72 78 -93 0 -11
-132 -112 -146 -112 -14 0 -227 292 -232 317 -3 17 9 30 64 67 38 25 72 46 76
46 3 0 21 -18 38 -40z m673 -32 c6 -22 -6 -38 -30 -38 -14 0 -27 36 -18 50 11
18 43 11 48 -12z m2456 -62 c11 -13 -3 -38 -44 -82 -5 -6 -28 -33 -50 -59
-126 -153 -158 -185 -172 -173 -8 6 -13 17 -11 24 5 21 242 304 254 304 6 0
17 -6 23 -14z m-3283 -165 c59 -57 121 -119 137 -138 27 -31 29 -36 14 -50
-14 -14 -23 -7 -103 71 -48 47 -89 84 -91 82 -2 -2 21 -44 51 -92 32 -51 51
-93 46 -98 -5 -5 -46 13 -96 42 -48 28 -90 49 -92 47 -3 -2 32 -39 77 -81 82
-78 91 -93 68 -112 -9 -8 -47 22 -155 126 -78 75 -142 144 -142 153 0 31 32
30 89 -3 103 -58 161 -88 161 -83 0 3 -27 53 -60 112 -33 58 -60 109 -60 112
0 15 24 30 36 23 6 -4 60 -54 120 -111z m3437 21 c15 -17 12 -25 -56 -123
-131 -190 -161 -229 -174 -229 -25 0 -26 31 -3 62 l22 30 -28 29 c-31 33 -46
36 -64 14 -16 -19 -54 -16 -57 5 -2 10 40 42 114 90 65 41 138 89 163 107 52
38 61 39 83 15z m-2031 -32 c29 -11 72 -36 96 -56 l42 -36 0 -295 c0 -262 2
-293 15 -279 13 12 15 59 15 296 l0 281 28 25 c109 98 293 112 512 37 112 -38
147 -64 153 -110 3 -30 0 -41 -17 -55 l-21 -18 21 0 c12 0 27 6 33 14 7 8 21
12 32 9 19 -5 19 -6 2 -26 -17 -20 -17 -20 2 -13 45 18 53 18 65 -4 13 -24 30
-192 60 -581 24 -315 24 -307 9 -292 -7 7 -15 71 -20 153 -5 78 -13 176 -18
218 -23 168 -41 330 -41 360 0 18 -5 32 -11 32 -7 0 -8 -18 -5 -52 15 -138 46
-440 51 -503 3 -38 8 -89 11 -112 6 -52 -10 -57 -31 -10 -7 17 -28 156 -46
307 -17 151 -34 277 -36 280 -7 7 -33 -31 -33 -48 0 -7 4 -10 10 -7 12 8 16
-11 34 -180 9 -77 21 -182 27 -233 7 -50 10 -94 8 -97 -3 -2 -32 9 -64 24 -63
30 -194 66 -280 76 -72 9 -80 12 -66 29 7 9 8 17 3 20 -6 3 -15 -1 -22 -9 -7
-8 -9 -15 -5 -15 4 0 2 -7 -5 -15 -7 -9 -11 -17 -9 -19 2 -2 53 -9 112 -15
163 -16 377 -94 377 -137 0 -9 -5 -14 -12 -11 -175 77 -291 101 -444 95 -85
-4 -117 -9 -129 -21 -9 -9 -23 -21 -33 -26 -13 -8 -14 -12 -3 -25 14 -17 2
-24 -64 -40 -29 -7 -29 -7 -10 8 19 15 19 15 -11 16 -23 0 -34 -6 -44 -25 -16
-30 -7 -43 17 -24 16 12 17 12 6 -2 -10 -13 -33 -15 -145 -11 -121 3 -131 2
-113 -12 31 -23 8 -19 -52 11 -114 55 -358 54 -559 -3 -119 -34 -148 -39 -140
-26 3 6 34 20 69 31 119 39 207 52 362 53 144 0 208 -7 271 -33 40 -17 91 -9
79 11 -5 8 -11 7 -21 -1 -11 -9 -19 -8 -35 7 -11 10 -27 19 -37 20 -9 1 -44 7
-77 13 -106 19 -305 13 -460 -14 l-30 -6 30 14 c136 62 418 84 503 40 56 -30
54 -12 -2 21 -42 24 -53 26 -174 26 -139 0 -232 -19 -356 -74 -31 -14 -56 -22
-56 -18 1 38 129 97 275 128 79 17 280 24 310 10 38 -16 85 -14 85 3 0 21 -42
26 -200 25 -143 0 -276 -27 -372 -75 -32 -15 -59 -25 -62 -21 -2 4 5 67 15
141 16 114 39 342 64 646 9 104 12 110 64 138 48 27 208 77 243 77 17 0 19 -4
13 -27 -4 -16 -11 -86 -15 -158 -5 -103 -11 -140 -29 -180 -19 -42 -91 -148
-112 -165 -12 -10 -30 -52 -25 -58 3 -3 31 7 61 23 31 15 57 26 59 24 1 -2 11
-31 22 -63 10 -33 24 -61 31 -64 16 -5 109 180 128 255 10 38 15 107 15 205 0
155 13 218 44 218 8 0 39 -9 68 -20z m-578 -197 c-3 -27 -12 -95 -19 -153 -8
-58 -16 -130 -19 -160 -3 -30 -17 -157 -32 -281 -22 -182 -31 -231 -46 -250
-19 -24 -19 -24 -13 91 3 63 12 171 20 240 8 69 21 198 29 286 10 128 17 168
33 190 10 16 24 41 31 57 17 40 22 33 16 -20z m-34 11 c0 -3 -10 -20 -22 -36
-16 -24 -24 -58 -34 -152 -7 -66 -22 -197 -34 -291 -11 -93 -23 -230 -27 -302
-3 -73 -10 -133 -15 -133 -13 0 -10 170 6 341 8 85 20 222 26 304 14 182 25
244 48 261 17 14 52 19 52 8z m1337 -823 c129 -25 321 -98 302 -115 -2 -2 -66
9 -141 25 -168 34 -289 49 -389 49 -54 0 -80 4 -88 14 -15 18 -5 24 51 35 73
15 163 12 265 -8z m-16 -85 c130 -19 322 -58 333 -68 18 -15 -62 -8 -151 13
-48 11 -151 29 -228 38 -211 27 -313 15 -373 -45 -64 -64 -82 -74 -134 -74
-54 0 -105 18 -127 44 -20 24 -8 29 20 8 31 -24 96 -34 139 -22 19 5 53 28 76
51 29 28 59 46 91 55 63 17 234 17 354 0z m-615 -52 c26 -11 53 -14 84 -10 41
5 43 4 26 -9 -11 -8 -35 -15 -54 -15 -36 0 -102 26 -102 41 0 12 1 12 46 -7z
m-161 -69 c-33 -48 -55 -68 -55 -49 0 8 39 64 63 91 36 41 31 14 -8 -42z
m1065 -86 c0 -16 -40 -69 -52 -69 -6 0 -8 11 -3 27 9 36 55 71 55 42z m-1660
-90 c30 -11 59 -24 64 -29 5 -5 4 -28 -4 -54 -9 -33 -18 -46 -31 -46 -25 0
-31 14 -19 46 13 33 5 43 -41 50 l-34 6 -43 -129 c-23 -70 -42 -133 -42 -139
0 -12 43 -34 66 -34 8 0 17 13 21 31 6 33 28 48 44 32 12 -12 -7 -88 -27 -104
-19 -15 -148 31 -152 55 -4 20 84 302 101 324 13 17 34 15 97 -9z m1700 -66
c24 -43 66 -116 92 -162 27 -46 47 -90 44 -97 -6 -15 -36 -20 -36 -6 0 4 -9
18 -19 31 -17 22 -21 23 -54 11 -36 -11 -37 -13 -31 -49 5 -33 3 -39 -15 -44
-26 -6 -24 -13 -51 203 -19 155 -19 166 -3 178 9 6 20 12 23 12 4 0 26 -35 50
-77z m-138 -153 c34 -157 36 -176 22 -187 -22 -16 -145 -36 -156 -25 -10 10
-78 305 -78 340 0 15 6 22 19 22 21 0 26 -10 37 -75 11 -65 52 -236 58 -242 3
-3 21 -2 41 1 44 9 45 18 5 190 -36 156 -36 158 -8 154 21 -3 26 -18 60 -178z
m-1354 85 c2 -44 0 -131 -3 -193 -6 -97 -9 -113 -24 -110 -10 2 -17 15 -19 40
-3 33 -7 37 -43 46 -39 10 -40 10 -54 -24 -14 -33 -37 -44 -50 -24 -3 6 3 27
14 48 11 20 45 97 77 170 49 115 60 133 78 130 19 -3 21 -11 24 -83z m192 44
c36 -5 69 -14 74 -19 5 -5 4 -41 -4 -86 -15 -97 -18 -104 -40 -104 -28 0 -30
-10 -14 -75 22 -95 19 -117 -15 -96 -15 9 -54 187 -45 203 4 5 17 8 30 5 27
-5 33 9 37 82 2 43 1 45 -30 52 -20 4 -36 2 -41 -5 -5 -6 -17 -72 -26 -146
-10 -74 -20 -145 -23 -157 -6 -28 -43 -32 -43 -5 -1 20 40 331 46 350 4 15 11
15 94 1z m912 -34 c0 -19 1 -41 2 -47 1 -7 -9 -14 -21 -16 -20 -3 -23 1 -23
27 0 29 -2 31 -39 31 -22 0 -43 -5 -46 -11 -4 -6 1 -73 11 -150 l18 -139 43 0
c47 0 49 4 37 82 -5 28 -12 38 -28 40 -11 2 -22 10 -24 19 -2 12 7 18 34 22
20 4 40 4 44 2 11 -7 33 -176 24 -185 -12 -11 -142 -30 -160 -23 -8 3 -14 10
-14 17 0 6 -9 83 -20 170 -12 88 -19 165 -16 172 6 14 37 20 119 23 l57 1 2
-35z m-655 -175 c12 -102 18 -189 14 -193 -17 -17 -41 5 -41 39 0 30 -3 34
-34 40 -44 8 -52 2 -60 -41 -5 -26 -12 -35 -26 -35 -28 0 -26 21 14 169 19 69
40 145 46 169 10 39 14 43 38 40 l26 -3 23 -185z m433 170 c0 -17 -7 -20 -45
-20 -53 0 -57 -7 -47 -75 l7 -50 43 -3 c33 -3 42 -7 42 -22 0 -15 -9 -19 -42
-22 -27 -2 -43 -8 -42 -15 1 -7 2 -35 3 -62 l1 -50 53 -3 c38 -2 52 -7 52 -18
0 -11 -17 -16 -72 -20 -66 -5 -73 -3 -77 15 -3 11 -8 94 -12 184 -8 187 -11
181 79 181 50 0 57 -2 57 -20z m-192 -2 c16 -16 16 -200 0 -216 -7 -7 -36 -12
-65 -12 l-52 0 -3 -67 c-3 -62 -5 -68 -25 -71 l-23 -3 0 190 0 191 78 0 c47 0
83 -5 90 -12z m-8 -913 c74 -38 104 -149 59 -221 -66 -107 -226 -100 -283 13
-30 59 -14 137 39 190 35 34 135 44 185 18z"/>
<path d="M1086 5119 c-4 -45 -4 -139 0 -210 l7 -129 58 0 59 0 0 210 0 210
-59 0 -58 0 -7 -81z"/>
<path d="M2476 5183 c-4 -9 -6 -103 -6 -210 l2 -193 64 0 64 0 0 210 0 210
-59 0 c-46 0 -60 -4 -65 -17z"/>
<path d="M3347 5018 c-10 -62 -17 -119 -17 -125 0 -9 16 -13 45 -13 50 0 50 1
36 77 -29 149 -34 173 -41 173 -4 0 -14 -51 -23 -112z"/>
<path d="M5510 4990 l0 -210 48 0 c26 0 53 5 60 12 8 8 12 66 12 194 0 209 -2
214 -76 214 l-44 0 0 -210z"/>
<path d="M3831 4200 c-19 -50 -32 -92 -30 -94 2 -2 17 -6 34 -8 29 -3 30 -1
37 42 9 63 9 150 0 150 -4 0 -23 -41 -41 -90z"/>
<path d="M2030 4021 c0 -5 14 -46 31 -91 26 -68 34 -81 52 -78 11 2 25 10 30
20 9 13 -1 30 -47 87 -56 71 -66 79 -66 62z"/>
<path d="M4716 3943 c-42 -57 -43 -66 -12 -83 37 -19 69 -6 95 41 23 41 24 42
5 56 -48 36 -52 36 -88 -14z"/>
<path d="M4612 3792 c-48 -74 -48 -77 -6 -101 30 -18 39 -20 45 -9 4 7 19 28
33 47 31 42 32 60 6 89 -30 32 -43 28 -78 -26z"/>
<path d="M4990 3609 c-41 -28 -76 -54 -78 -58 -1 -4 8 -17 22 -30 l24 -23 61
81 c34 45 58 81 54 81 -5 0 -42 -23 -83 -51z"/>
<path d="M3900 3480 c0 -5 7 -7 15 -4 8 4 15 8 15 10 0 2 -7 4 -15 4 -8 0 -15
-4 -15 -10z"/>
<path d="M4060 3420 c0 -5 5 -10 10 -10 6 0 10 5 10 10 0 6 -4 10 -10 10 -5 0
-10 -4 -10 -10z"/>
<path d="M3687 3367 c-11 -29 -9 -43 4 -30 6 6 9 19 7 29 -3 18 -4 18 -11 1z"/>
<path d="M3719 3227 c-32 -27 -98 -79 -113 -89 -6 -4 -7 -10 -4 -14 7 -6 109
76 138 111 18 21 9 18 -21 -8z"/>
<path d="M3421 3174 c0 -11 3 -14 6 -6 3 7 2 16 -1 19 -3 4 -6 -2 -5 -13z"/>
<path d="M3372 3138 c-7 -7 -12 -16 -12 -21 0 -5 7 -1 16 8 9 9 14 18 12 20
-2 3 -10 -1 -16 -7z"/>
<path d="M3895 3120 c3 -5 8 -10 11 -10 2 0 4 5 4 10 0 6 -5 10 -11 10 -5 0
-7 -4 -4 -10z"/>
<path d="M3515 3040 c-3 -5 -2 -10 4 -10 5 0 13 5 16 10 3 6 2 10 -4 10 -5 0
-13 -4 -16 -10z"/>
<path d="M3121 2894 c0 -11 3 -14 6 -6 3 7 2 16 -1 19 -3 4 -6 -2 -5 -13z"/>
<path d="M3365 2890 c-3 -5 -2 -10 4 -10 5 0 13 5 16 10 3 6 2 10 -4 10 -5 0
-13 -4 -16 -10z"/>
<path d="M3707 2873 c-13 -13 -7 -21 13 -16 11 3 20 9 20 14 0 10 -24 12 -33
2z"/>
<path d="M3132 2850 c0 -14 2 -19 5 -12 2 6 2 18 0 25 -3 6 -5 1 -5 -13z"/>
<path d="M3275 2770 c-3 -5 -1 -10 4 -10 6 0 11 5 11 10 0 6 -2 10 -4 10 -3 0
-8 -4 -11 -10z"/>
<path d="M3161 2646 c-16 -19 -11 -29 8 -17 7 5 12 14 9 21 -3 9 -8 7 -17 -4z"/>
<path d="M3440 2640 c0 -5 5 -10 10 -10 6 0 10 5 10 10 0 6 -4 10 -10 10 -5 0
-10 -4 -10 -10z"/>
<path d="M3240 2610 c-12 -8 -11 -10 7 -10 12 0 25 5 28 10 8 13 -15 13 -35 0z"/>
<path d="M4110 2198 c0 -22 21 -151 25 -156 7 -9 55 12 55 24 0 15 -68 154
-76 154 -2 0 -4 -10 -4 -22z"/>
<path d="M2603 2140 c-33 -74 -53 -134 -46 -140 4 -4 18 -11 30 -14 19 -6 23
-2 28 26 3 18 5 60 3 93 -3 54 -4 57 -15 35z"/>
<path d="M3025 2024 c-19 -86 -16 -104 20 -104 22 0 25 4 25 38 0 59 -12 142
-20 142 -5 0 -16 -34 -25 -76z"/>
<path d="M3230 2060 l0 -80 40 0 40 0 0 80 0 80 -40 0 -40 0 0 -80z"/>
</g>
</svg>
